<svg width="59" height="60" viewBox="0 0 59 60" fill="none" xmlns="http://www.w3.org/2000/svg">
<path d="M54.5347 29.5899L30.8022 5.47267C30.6313 5.29855 30.4283 5.16042 30.2049 5.06617C29.9814 4.97191 29.7419 4.9234 29.5 4.9234C29.2581 4.9234 29.0186 4.97191 28.7951 5.06617C28.5717 5.16042 28.3687 5.29855 28.1979 5.47267L4.46534 29.5899C3.77394 30.293 3.38214 31.2481 3.38214 32.2442C3.38214 34.3125 5.03575 35.9942 7.06964 35.9942H9.57023V53.2031C9.57023 54.2403 10.3942 55.0781 11.414 55.0781H25.8125V41.9531H32.2656V55.0781H47.586C48.6059 55.0781 49.4298 54.2403 49.4298 53.2031V35.9942H51.9304C52.9099 35.9942 53.849 35.6016 54.5404 34.8926C55.9751 33.4277 55.9751 31.0547 54.5347 29.5899V29.5899Z" fill="black"/>
</svg>
